<svg width="459" height="440" viewBox="0 0 459 440" fill="none" xmlns="http://www.w3.org/2000/svg">
<path fill-rule="evenodd" clip-rule="evenodd" d="M102.989 0H355.535C412.414 0 458.524 44.1495 458.524 98.6106V340.421C458.524 394.882 412.414 439.032 355.535 439.032H102.989C46.1097 439.032 0 394.882 0 340.421V98.6106C0 44.1495 46.1097 0 102.989 0Z" fill="url(#paint0_linear_2007_477)"/>
<path fill-rule="evenodd" clip-rule="evenodd" d="M296.988 221.43C308.354 210.547 326.783 210.547 338.149 221.43C349.516 232.313 349.516 249.959 338.149 260.842L228.913 365.434C206.18 343.668 206.18 308.377 228.913 286.611L296.988 221.43ZM220.541 187.026C231.907 176.143 250.336 176.143 261.702 187.026C273.068 197.909 273.068 215.554 261.702 226.437L235.243 251.771C223.877 262.655 205.448 262.655 194.082 251.771C182.715 240.888 182.715 223.243 194.082 212.36L220.541 187.026ZM226.149 74.0326C248.881 95.799 248.881 131.089 226.149 152.856L158.074 218.037C146.708 228.92 128.279 228.92 116.913 218.037C105.546 207.153 105.546 189.508 116.913 178.625L226.149 74.0326Z" fill="white"/>
<defs>
<linearGradient id="paint0_linear_2007_477" x1="229.262" y1="0" x2="229.262" y2="439.032" gradientUnits="userSpaceOnUse">
<stop stop-color="#73D389"/>
<stop offset="1" stop-color="#4EB78B"/>
</linearGradient>
</defs>
</svg>
